<svg width="91" height="91" viewBox="0 0 91 91" fill="none" xmlns="http://www.w3.org/2000/svg">
<path d="M45.0742 90.1484C69.968 90.1484 90.1484 69.968 90.1484 45.0742C90.1484 20.1804 69.968 0 45.0742 0C20.1804 0 0 20.1804 0 45.0742C0 69.968 20.1804 90.1484 45.0742 90.1484Z" fill="#77B3D4"/>
<path opacity="0.2" d="M40.8485 35.6368C40.2851 28.8757 33.2422 25.636 32.9605 25.4951C32.5379 25.3542 32.2562 25.3542 31.9745 25.3542C23.8048 26.7628 22.678 31.4111 22.5371 31.6928V32.5379C32.2562 62.6813 52.3988 68.1747 59.019 70.0059C59.5825 70.1467 60.005 70.2876 60.2868 70.4285C60.4276 70.4285 60.5685 70.5693 60.7093 70.5693C60.991 70.5693 61.1319 70.5693 61.4136 70.4285C61.5545 70.2876 66.3436 68.0339 67.6113 60.7093C67.6113 60.4276 67.6113 60.005 67.4705 59.7233C67.3296 59.5825 64.7942 54.7933 57.8922 53.1031C57.4696 52.9622 56.9062 53.1031 56.4836 53.3848C54.2299 55.2159 51.2719 57.1879 50.0042 57.4696C41.2711 53.2439 36.3411 44.9334 36.2002 43.3839C36.0594 42.5388 38.0314 39.4399 40.4259 36.9045C40.7076 36.6228 40.8485 36.0594 40.8485 35.6368Z" fill="#231F20"/>
<path d="M40.8485 32.8197C40.2851 26.0585 33.2422 22.8188 32.9605 22.678C32.5379 22.5371 32.2562 22.5371 31.9745 22.5371C23.8048 23.9457 22.678 28.594 22.5371 28.8757V29.7208C32.2562 59.8642 52.3988 65.3576 59.019 67.1887C59.5825 67.3296 60.005 67.4705 60.2868 67.6113C60.4276 67.6113 60.5685 67.7522 60.7093 67.7522C60.991 67.7522 61.1319 67.7522 61.4136 67.6113C61.5545 67.4705 66.3436 65.2167 67.6113 57.8922C67.6113 57.6105 67.6113 57.1879 67.4705 56.9062C67.3296 56.7653 64.7942 51.9762 57.8922 50.2859C57.4696 50.1451 56.9062 50.2859 56.4836 50.5676C54.2299 52.3988 51.2719 54.3708 50.0042 54.6525C41.2711 50.4268 36.3411 42.1162 36.2002 40.5668C36.0594 39.7216 38.0314 36.6228 40.4259 34.0874C40.7076 33.8057 40.8485 33.2422 40.8485 32.8197Z" fill="white"/>
</svg>
