<svg width="91" height="91" viewBox="0 0 91 91" fill="none" xmlns="http://www.w3.org/2000/svg">
<path d="M76.6261 0H13.5223C6.05412 0 0 6.05412 0 13.5223V76.6261C0 84.0943 6.05412 90.1484 13.5223 90.1484H76.6261C84.0943 90.1484 90.1484 84.0943 90.1484 76.6261V13.5223C90.1484 6.05412 84.0943 0 76.6261 0Z" fill="black"/>
<path d="M76.6261 0H13.5223C6.05412 0 0 6.05412 0 13.5223V76.6261C0 84.0943 6.05412 90.1484 13.5223 90.1484H76.6261C84.0943 90.1484 90.1484 84.0943 90.1484 76.6261V13.5223C90.1484 6.05412 84.0943 0 76.6261 0Z" fill="url(#paint0_radial_20_26)"/>
<path d="M76.6261 0H13.5223C6.05412 0 0 6.05412 0 13.5223V76.6261C0 84.0943 6.05412 90.1484 13.5223 90.1484H76.6261C84.0943 90.1484 90.1484 84.0943 90.1484 76.6261V13.5223C90.1484 6.05412 84.0943 0 76.6261 0Z" fill="url(#paint1_linear_20_26)"/>
<path d="M57.9274 17.9592H32.221C24.3444 17.9592 17.9592 24.3444 17.9592 32.221V57.9274C17.9592 65.8039 24.3444 72.1891 32.221 72.1891H57.9274C65.8039 72.1891 72.1891 65.8039 72.1891 57.9274V32.221C72.1891 24.3444 65.8039 17.9592 57.9274 17.9592Z" stroke="white" stroke-width="5.28213"/>
<path d="M45.0742 57.7513C52.0755 57.7513 57.7513 52.0756 57.7513 45.0742C57.7513 38.0728 52.0755 32.3971 45.0742 32.3971C38.0728 32.3971 32.397 38.0728 32.397 45.0742C32.397 52.0756 38.0728 57.7513 45.0742 57.7513Z" stroke="white" stroke-width="5.28213"/>
<path d="M61.0966 30.1081C61.6801 30.1081 62.1531 29.6352 62.1531 29.0517C62.1531 28.4683 61.6801 27.9953 61.0966 27.9953C60.5132 27.9953 60.0402 28.4683 60.0402 29.0517C60.0402 29.6352 60.5132 30.1081 61.0966 30.1081Z" stroke="white" stroke-width="5.28213"/>
<defs>
<radialGradient id="paint0_radial_20_26" cx="0" cy="0" r="1" gradientUnits="userSpaceOnUse" gradientTransform="translate(36.0594 90.1484) scale(90.1484)">
<stop offset="0.1" stop-color="#FFDD55"/>
<stop offset="0.5" stop-color="#FF543E"/>
<stop offset="1" stop-color="#C837AB"/>
</radialGradient>
<linearGradient id="paint1_linear_20_26" x1="0" y1="0" x2="18.0297" y2="90.1484" gradientUnits="userSpaceOnUse">
<stop offset="0.1" stop-color="#3771C8"/>
<stop offset="0.5" stop-color="#6600FF" stop-opacity="0"/>
</linearGradient>
</defs>
</svg>
