<svg width="91" height="91" viewBox="0 0 91 91" fill="none" xmlns="http://www.w3.org/2000/svg">
<path d="M76.6261 0H13.5223C6.05412 0 0 6.05412 0 13.5223V76.6261C0 84.0943 6.05412 90.1484 13.5223 90.1484H76.6261C84.0943 90.1484 90.1484 84.0943 90.1484 76.6261V13.5223C90.1484 6.05412 84.0943 0 76.6261 0Z" fill="#25D366"/>
<path d="M21.6567 69.1959L24.1217 57.7513C20.9535 52.7542 19.7176 46.7726 20.6458 40.929C21.5741 35.0854 24.6027 29.7813 29.1635 26.0118C33.7243 22.2424 39.5038 20.2667 45.4177 20.4554C51.3316 20.6441 56.9734 22.9843 61.2846 27.0368C65.5958 31.0894 68.2801 36.5758 68.8339 42.4667C69.3877 48.3576 67.7729 54.2481 64.2925 59.0332C60.8122 63.8182 55.7054 67.1688 49.9303 68.4564C44.1552 69.744 38.1087 68.88 32.9253 66.0267L21.6567 69.1959Z" fill="#25D366" stroke="white" stroke-width="4.57785"/>
<path d="M54.2299 48.0674C53.7017 47.7153 53.1735 47.5392 52.6453 48.2435L50.5324 51.0606C50.0042 51.4128 49.6521 51.5888 48.9478 51.2367C46.3067 49.8281 42.6092 48.2435 39.4399 42.9614C39.2639 42.2571 39.616 41.9049 39.9681 41.5528L41.5528 39.0878C41.9049 38.7356 41.7289 38.3835 41.5528 38.0314L39.4399 32.9253C38.9117 31.5167 38.3835 31.6928 37.8553 31.6928H36.4467C36.0946 31.6928 35.3903 31.8689 34.686 32.5732C30.8124 36.4467 32.3971 41.9049 35.2142 45.4263C35.7424 46.1306 39.2639 52.4692 46.8349 55.8145C52.4692 58.2795 53.7017 57.9274 55.2863 57.5753C57.2231 57.3992 59.1599 55.8145 60.0403 54.2299C60.2163 53.7017 61.0967 51.4128 60.3924 51.0606" fill="white"/>
</svg>
